<svg width="156" height="77" viewBox="0 0 156 77" fill="none" xmlns="http://www.w3.org/2000/svg">
<path opacity="0.9" d="M71.3311 57.5002C67.153 64.7446 60.704 70.4064 52.9842 73.6075C45.2644 76.8086 36.7052 77.3702 28.6341 75.2052C20.563 73.0402 13.431 68.2696 8.34412 61.6331C3.25729 54.9967 0.500001 46.8652 0.5 38.5C0.499999 30.1348 3.25728 22.0033 8.34411 15.3669C13.4309 8.73039 20.563 3.95978 28.6341 1.79479C36.7052 -0.370203 45.2644 0.191396 52.9842 3.3925C60.704 6.59361 67.153 12.2554 71.3311 19.4998" stroke="#333333"/>
<path opacity="0.9" d="M62.4733 62.5418C57.7235 67.2968 51.6719 70.5349 45.0839 71.8467C38.4959 73.1586 31.6673 72.4853 25.4615 69.912C19.2557 67.3387 13.9514 62.9809 10.2195 57.3896C6.48755 51.7983 4.49561 45.2247 4.49561 38.5C4.4956 31.7753 6.48755 25.2017 10.2195 19.6104C13.9514 14.0191 19.2557 9.66134 25.4615 7.08802C31.6673 4.51471 38.4959 3.84142 45.0839 5.15328C51.6719 6.46513 57.7235 9.70323 62.4733 14.4582" stroke="#333333"/>
<path opacity="0.9" d="M53.4415 64.4809C48.886 67.1139 43.7184 68.5 38.4582 68.5C33.198 68.5 28.0304 67.1139 23.4749 64.4809C18.9194 61.8479 15.1364 58.0608 12.5061 53.5002C9.87593 48.9396 8.49121 43.7662 8.49121 38.5C8.49121 33.2338 9.87593 28.0604 12.5061 23.4998C15.1364 18.9392 18.9194 15.1521 23.4749 12.5191C28.0304 9.88613 33.198 8.5 38.4582 8.5C43.7184 8.5 48.8859 9.88613 53.4415 12.5191" stroke="#333333"/>
<path d="M47.9937 32.2102L43.3794 33.0284C43.1864 32.4375 42.8799 31.875 42.4599 31.3409C42.0513 30.8068 41.4951 30.3693 40.7913 30.0284C40.0875 29.6875 39.2078 29.517 38.1521 29.517C36.7105 29.517 35.5072 29.8409 34.5424 30.4886C33.5775 31.125 33.0951 31.9488 33.0951 32.9602C33.0951 33.8352 33.4186 34.5397 34.0656 35.0738C34.7126 35.6079 35.757 36.0454 37.1986 36.3863L41.3532 37.3409C43.7597 37.8977 45.5532 38.7556 46.7337 39.9147C47.9142 41.0738 48.5045 42.5795 48.5045 44.4318C48.5045 46 48.0505 47.3977 47.1424 48.625C46.2456 49.8409 44.9913 50.7954 43.3794 51.4886C41.7789 52.1818 39.9229 52.5284 37.8116 52.5284C34.8829 52.5284 32.4935 51.9034 30.6432 50.6534C28.7929 49.392 27.6578 47.6022 27.2378 45.284L32.1586 44.534C32.4651 45.8181 33.0951 46.7897 34.0486 47.4488C35.0021 48.0965 36.2451 48.4204 37.7775 48.4204C39.4462 48.4204 40.7799 48.0738 41.7789 47.3806C42.7778 46.6761 43.2772 45.8181 43.2772 44.8068C43.2772 43.9886 42.9707 43.3011 42.3578 42.7443C41.7561 42.1875 40.831 41.767 39.5824 41.4829L35.1553 40.5113C32.7148 39.9545 30.9099 39.0681 29.7408 37.8522C28.5829 36.6363 28.004 35.0965 28.004 33.2329C28.004 31.6875 28.4354 30.3352 29.2981 29.1761C30.1608 28.017 31.3527 27.1136 32.8737 26.4659C34.3948 25.8068 36.1372 25.4772 38.101 25.4772C40.9275 25.4772 43.1524 26.0909 44.7756 27.3181C46.3988 28.534 47.4715 30.1647 47.9937 32.2102Z" fill="#333333"/>
<path d="M59.7154 52.5795C58.0581 52.5795 56.5597 52.2727 55.2202 51.659C53.8808 51.034 52.8194 50.1306 52.0362 48.9488C51.2643 47.767 50.8784 46.3181 50.8784 44.6022C50.8784 43.125 51.1621 41.909 51.7297 40.9545C52.2973 40 53.0635 39.2443 54.0284 38.6875C54.9932 38.1306 56.0716 37.7102 57.2635 37.4261C58.4554 37.142 59.67 36.9261 60.9073 36.7784C62.4738 36.5965 63.7451 36.4488 64.7213 36.3352C65.6975 36.2102 66.407 36.0113 66.8497 35.7386C67.2924 35.4659 67.5137 35.0227 67.5137 34.409V34.2897C67.5137 32.8011 67.0937 31.6477 66.2537 30.8295C65.4251 30.0113 64.1878 29.6022 62.5419 29.6022C60.8278 29.6022 59.477 29.9829 58.4894 30.7443C57.5132 31.4943 56.8378 32.3295 56.4632 33.25L51.6786 32.159C52.2462 30.5681 53.0748 29.284 54.1646 28.3068C55.2657 27.3181 56.5313 26.6022 57.9616 26.159C59.3919 25.7045 60.8959 25.4772 62.4738 25.4772C63.5181 25.4772 64.6248 25.6022 65.794 25.8522C66.9746 26.0909 68.0756 26.534 69.0973 27.1818C70.1302 27.8295 70.9759 28.7556 71.6343 29.9602C72.2927 31.1534 72.6218 32.7045 72.6218 34.6136V52H67.65V48.4204H67.4456C67.1164 49.0795 66.6227 49.7272 65.9643 50.3636C65.3059 51 64.4602 51.5284 63.4273 51.9488C62.3943 52.3693 61.157 52.5795 59.7154 52.5795ZM60.8221 48.4886C62.2297 48.4886 63.4329 48.2102 64.4319 47.6534C65.4421 47.0965 66.2083 46.3693 66.7305 45.4715C67.264 44.5625 67.5308 43.5909 67.5308 42.5568V39.1818C67.3491 39.3636 66.9973 39.534 66.4751 39.6931C65.9643 39.8409 65.3797 39.9715 64.7213 40.0852C64.0629 40.1875 63.4216 40.284 62.7973 40.375C62.1729 40.4545 61.6508 40.5227 61.2308 40.5795C60.2432 40.7045 59.3408 40.9147 58.5235 41.2102C57.7175 41.5056 57.0705 41.9318 56.5824 42.4886C56.1057 43.034 55.8673 43.7613 55.8673 44.6704C55.8673 45.9318 56.3327 46.8863 57.2635 47.534C58.1943 48.1704 59.3805 48.4886 60.8221 48.4886Z" fill="#333333"/>
<path d="M88.6145 25.8181V29.909H74.3288V25.8181H88.6145ZM78.1599 19.5454H83.2509V44.3125C83.2509 45.3011 83.3985 46.0454 83.6936 46.5454C83.9888 47.034 84.3691 47.3693 84.8345 47.5511C85.3112 47.7215 85.8277 47.8068 86.3839 47.8068C86.7926 47.8068 87.1501 47.7784 87.4566 47.7215C87.7631 47.6647 88.0015 47.6193 88.1717 47.5852L89.0912 51.7954C88.7961 51.909 88.3761 52.0227 87.8312 52.1363C87.2863 52.2613 86.6053 52.3295 85.788 52.3409C84.4485 52.3636 83.1999 52.125 82.042 51.625C80.8842 51.125 79.9477 50.3522 79.2326 49.3068C78.5174 48.2613 78.1599 46.9488 78.1599 45.3693V19.5454Z" fill="#333333"/>
<path d="M107.817 41.142V25.8181H112.925V52H107.919V47.4659H107.646C107.045 48.8636 106.08 50.0284 104.752 50.9602C103.435 51.8806 101.795 52.3409 99.831 52.3409C98.151 52.3409 96.664 51.9715 95.3699 51.2329C94.0872 50.4829 93.0769 49.375 92.3391 47.909C91.6126 46.4431 91.2494 44.6306 91.2494 42.4715V25.8181H96.3405V41.8579C96.3405 43.642 96.8342 45.0625 97.8218 46.1193C98.8094 47.1761 100.092 47.7045 101.67 47.7045C102.623 47.7045 103.571 47.4659 104.513 46.9886C105.467 46.5113 106.256 45.7897 106.88 44.8238C107.516 43.8579 107.828 42.6306 107.817 41.142Z" fill="#333333"/>
<path d="M116.769 52V25.8181H121.689V29.9772H121.962C122.439 28.5681 123.279 27.4602 124.482 26.6534C125.696 25.8352 127.07 25.4261 128.602 25.4261C128.92 25.4261 129.295 25.4375 129.726 25.4602C130.169 25.4829 130.515 25.5113 130.765 25.5454V30.4204C130.56 30.3636 130.197 30.3011 129.675 30.2329C129.153 30.1534 128.631 30.1136 128.109 30.1136C126.905 30.1136 125.833 30.3693 124.89 30.8806C123.96 31.3806 123.222 32.0795 122.677 32.9772C122.132 33.8636 121.86 34.875 121.86 36.0113V52H116.769Z" fill="#333333"/>
<path d="M139.263 36.4545V52H134.172V25.8181H139.058V30.0795H139.382C139.983 28.6931 140.926 27.5795 142.208 26.7386C143.502 25.8977 145.131 25.4772 147.095 25.4772C148.877 25.4772 150.438 25.8522 151.778 26.6022C153.117 27.3409 154.156 28.4431 154.893 29.909C155.631 31.375 156 33.1875 156 35.3465V52H150.909V35.9602C150.909 34.0625 150.415 32.5795 149.428 31.5113C148.44 30.4318 147.084 29.892 145.358 29.892C144.178 29.892 143.128 30.1477 142.208 30.659C141.3 31.1704 140.579 31.9204 140.046 32.909C139.524 33.8863 139.263 35.0681 139.263 36.4545Z" fill="#333333"/>
</svg>
